<svg xmlns="http://www.w3.org/2000/svg" id="Layer_1" viewBox="104 -20 503 334"><path d="M449-19.9L104-20v256l82.2,78H607V133.4L449-19.9z M225,256.1l-61-61V39h61V256.1z M408,196.7c0,39.2-17.8,59.3-56.8,59.3 c-30.1,0-119.2,0-119.2,0v-61h176C408,195,408,196.1,408,196.7z M408,188h-58v-12c0,0-51.4,0-57.8,0c-39.3,0-60.2-18.7-60.2-58.1 c0-3.6,0-6.9,0-10.9h58v9c0,0,52.6,0,61.2,0c39.3,0,56.8,21.6,56.8,60.9C408,178.8,408,182,408,188z M408,100h-16.3H289.9H232 c0-1,0-1.2,0-1.7c0-39.4,20.6-59.3,59.9-59.3c10.6,0,116.1,0,116.1,0V100z M547,256H414V39.1l61,60.1V195h72V256z"/></svg>